<?xml version="1.0" standalone="no"?>
<!DOCTYPE svg PUBLIC "-//W3C//DTD SVG 20010904//EN"
 "http://www.w3.org/TR/2001/REC-SVG-20010904/DTD/svg10.dtd">
<svg version="1.0" xmlns="http://www.w3.org/2000/svg"
 width="1275.000000pt" height="1301.000000pt" viewBox="0 0 1275.000000 1301.000000"
 preserveAspectRatio="xMidYMid meet">

<g transform="translate(0.000000,1301.000000) scale(0.100000,-0.100000)"
fill="#000000" stroke="none">
<path d="M6346 10398 c-50 -164 -353 -1084 -361 -1094 -6 -8 -64 -19 -164 -29
-306 -31 -655 -103 -860 -176 -47 -17 -94 -33 -103 -36 -13 -4 -15 -13 -12
-41 12 -91 38 -248 60 -367 13 -71 29 -166 35 -210 12 -92 20 -106 57 -100 15
3 133 25 262 50 249 47 377 63 770 95 304 25 356 25 665 0 369 -30 556 -54
790 -99 285 -56 263 -53 274 -33 5 9 12 42 16 72 4 30 18 111 31 180 13 69 34
196 47 283 l24 158 -26 13 c-160 82 -653 186 -1048 221 l-72 7 -30 91 c-104
319 -320 986 -326 1005 -7 24 -23 30 -29 10z m97 -1330 c77 -159 79 -163 67
-203 -14 -47 -141 -295 -152 -295 -4 0 -43 72 -87 160 l-80 160 53 113 c80
169 110 227 116 227 3 0 40 -73 83 -162z m-658 -114 l52 -110 -59 -150 c-33
-82 -63 -153 -68 -157 -8 -9 -91 130 -136 227 l-26 57 45 132 c25 73 53 150
62 171 l17 40 31 -50 c16 -27 54 -99 82 -160z m1340 1 c21 -60 37 -122 37
-138 -1 -23 -96 -212 -137 -271 -13 -17 -14 -17 -28 10 -7 16 -37 88 -66 160
l-52 132 57 113 c31 63 68 134 82 158 l26 45 22 -50 c11 -27 38 -98 59 -159z
m-1918 -53 c31 -64 55 -130 55 -146 -1 -29 -67 -256 -84 -290 -9 -16 -19 -1
-70 95 -33 63 -64 127 -69 142 -6 20 3 70 32 183 21 86 42 161 45 166 9 14 30
-20 91 -150z m2412 98 c6 -25 22 -88 36 -140 36 -136 34 -150 -31 -276 -31
-60 -62 -115 -68 -122 -10 -10 -21 16 -55 123 -24 74 -43 151 -44 170 -1 40
129 313 143 299 4 -5 12 -29 19 -54z"/>
<path d="M5995 8284 c-123 -9 -256 -26 -327 -41 -64 -13 -82 -21 -111 -52 -19
-20 -46 -65 -60 -101 -14 -36 -50 -128 -80 -205 -61 -157 -109 -301 -161 -486
-19 -68 -42 -144 -51 -169 -18 -51 -74 -262 -112 -420 -14 -58 -34 -143 -45
-190 -40 -172 -77 -385 -67 -396 17 -21 183 -126 374 -236 105 -61 246 -143
315 -182 121 -71 242 -138 461 -257 59 -31 134 -67 167 -79 53 -19 65 -21 99
-10 47 16 190 86 303 150 47 26 164 92 260 145 96 54 198 112 225 130 54 34
226 134 345 200 75 42 205 129 214 144 6 9 -66 371 -99 501 -13 52 -42 167
-64 255 -22 88 -47 180 -56 205 -9 25 -36 115 -60 200 -94 333 -248 741 -301
800 -38 42 -76 54 -249 77 -105 13 -792 26 -920 17z m422 -471 c63 -68 78
-180 43 -330 -51 -216 -24 -259 126 -203 41 16 138 113 195 197 60 88 120 129
188 127 36 -1 49 -7 69 -29 50 -59 4 -150 -110 -216 -183 -104 -248 -144 -248
-150 0 -4 14 -9 30 -13 56 -11 183 -76 300 -153 134 -89 333 -279 399 -382 63
-99 54 -177 -23 -197 -34 -8 -88 11 -116 41 l-23 25 -81 -78 c-271 -259 -478
-376 -716 -404 -291 -34 -559 84 -876 386 l-101 95 -23 -24 c-47 -50 -134 -56
-165 -12 -20 28 -19 90 1 130 52 101 266 316 409 412 105 70 263 152 312 161
54 10 62 4 -150 125 -136 77 -152 90 -178 141 -37 72 -14 127 58 143 66 14
139 -38 225 -161 64 -92 137 -153 210 -175 55 -17 63 -18 84 -5 35 23 38 63
12 167 -16 66 -23 123 -23 194 0 91 2 104 28 147 15 26 35 52 45 57 32 19 72
12 99 -16z"/>
<path d="M6205 7147 c-147 -55 -267 -183 -309 -329 -34 -120 -11 -316 51 -430
61 -112 146 -183 261 -218 96 -29 247 -25 335 9 167 65 280 240 294 452 13
197 -53 339 -210 456 -113 83 -291 108 -422 60z"/>
<path d="M4990 8126 c-36 -12 -108 -41 -160 -65 -117 -52 -508 -257 -599 -314
-174 -111 -231 -148 -339 -222 -156 -107 -228 -175 -259 -245 -14 -30 -43
-115 -64 -189 -39 -134 -40 -161 -4 -161 14 0 542 -245 724 -335 62 -31 120
-55 129 -53 10 2 26 46 52 143 115 431 174 619 249 798 22 50 58 137 81 192
49 117 129 257 209 370 74 104 75 105 59 104 -7 0 -42 -10 -78 -23z"/>
<path d="M7640 8144 c0 -3 13 -23 28 -43 85 -108 199 -304 255 -436 61 -144
137 -337 165 -420 31 -91 176 -602 188 -663 4 -19 13 -36 21 -39 7 -3 102 38
211 90 194 94 571 269 645 301 29 12 37 20 33 33 -106 371 -121 395 -342 546
-394 270 -837 514 -1102 607 -86 31 -102 34 -102 24z"/>
<path d="M3490 7533 c-240 -25 -787 -221 -1225 -441 -300 -150 -649 -350 -905
-517 -95 -62 -196 -157 -264 -248 -44 -59 -42 -65 58 -191 100 -125 142 -173
317 -358 82 -86 149 -158 149 -161 0 -3 -28 -23 -62 -44 -262 -166 -358 -226
-452 -278 -220 -123 -550 -320 -549 -328 1 -8 1179 -1470 1309 -1624 38 -45
71 -80 75 -77 4 2 28 57 54 121 27 65 115 273 196 463 81 190 193 458 249 595
56 138 132 315 170 395 37 80 114 252 169 383 114 265 79 147 401 1375 94 360
181 675 195 701 25 50 94 127 179 199 l49 42 -39 -2 c-21 0 -55 -3 -74 -5z
m-532 -370 c-8 -10 -64 -74 -124 -143 -261 -296 -670 -778 -852 -1004 -62 -78
-118 -143 -124 -145 -14 -5 -165 99 -207 143 l-35 36 35 38 c373 397 538 557
754 730 163 129 267 200 424 291 128 73 155 84 129 54z"/>
<path d="M9175 7489 c97 -86 144 -140 171 -198 14 -29 128 -445 254 -925 125
-479 239 -900 253 -936 44 -114 176 -420 247 -570 37 -80 94 -208 125 -285
101 -248 221 -535 303 -725 86 -200 171 -402 218 -517 16 -40 31 -73 34 -72 8
1 89 99 630 769 282 349 569 704 637 787 l124 153 -43 25 c-24 15 -92 56 -153
92 -60 36 -198 115 -305 175 -164 93 -486 291 -554 341 -19 14 -11 23 135 178
252 268 399 449 399 492 0 49 -163 219 -294 304 -583 381 -1287 725 -1806 881
-175 53 -240 67 -360 78 l-75 6 60 -53z m688 -365 c316 -176 682 -477 1012
-830 66 -71 144 -155 174 -187 l54 -57 -34 -36 c-35 -36 -189 -144 -206 -144
-5 0 -52 53 -104 118 -113 141 -263 321 -379 457 -47 55 -155 181 -240 280
-85 99 -202 234 -260 300 -124 141 -135 155 -125 155 5 0 53 -25 108 -56z"/>
<path d="M3281 5964 c-61 -244 -111 -452 -111 -461 0 -19 86 -256 116 -318 15
-32 30 -43 93 -73 92 -42 172 -65 311 -92 105 -21 421 -70 447 -70 10 0 13 25
13 110 0 110 21 255 86 585 14 72 29 149 33 172 7 34 5 45 -8 56 -18 15 -173
108 -356 212 -66 38 -208 126 -317 196 l-196 126 -111 -443z"/>
<path d="M9150 6293 c-96 -62 -242 -153 -325 -200 -226 -130 -362 -212 -373
-226 -7 -8 -4 -45 9 -112 85 -438 109 -592 109 -697 0 -83 3 -108 13 -108 18
0 197 27 342 51 187 31 318 67 410 111 l84 40 31 74 c16 40 46 118 66 174 l36
100 -112 452 c-61 249 -113 454 -113 454 -1 1 -81 -50 -177 -113z"/>
<path d="M4780 5443 c-48 -258 -61 -342 -67 -438 l-6 -101 299 -13 c362 -15
1007 -31 1013 -25 9 9 -17 25 -184 110 -169 87 -799 443 -947 536 -43 26 -80
48 -82 48 -2 0 -14 -53 -26 -117z"/>
<path d="M7855 5527 c-140 -94 -1003 -576 -1102 -616 -31 -13 -60 -38 -52 -45
6 -6 671 11 1012 25 l297 13 0 50 c-1 91 -85 606 -99 606 -4 0 -29 -15 -56
-33z"/>
</g>
</svg>
